{
  "scene": 0,
  "asset": {
    "generator": "landform",
    "version": "2.0"
  },
  "accessors": [
    {
      "bufferView": 0,
      "byteOffset": 0,
      "componentType": 5126,
      "count": 199,
      "min": [
        -2048.0,
        -83.05381,
        -2048.0
      ],
      "max": [
        2048.0,
        182.650131,
        2048.0
      ],
      "type": "VEC3",
      "name": "vertices"
    },
    {
      "bufferView": 0,
      "byteOffset": 2388,
      "componentType": 5126,
      "count": 199,
      "min": [
        -0.211896926,
        0.977157533,
        -0.03594547
      ],
      "max": [
        0.0173228662,
        0.9999763,
        0.103021108
      ],
      "type": "VEC3",
      "name": "normals"
    },
    {
      "bufferView": 0,
      "byteOffset": 4776,
      "componentType": 5126,
      "count": 199,
      "min": [
        0.000567137031,
        0.00504159927
      ],
      "max": [
        0.9994327,
        0.9998367
      ],
      "type": "VEC2",
      "name": "uvs"
    },
    {
      "bufferView": 1,
      "byteOffset": 0,
      "componentType": 5123,
      "count": 1029,
      "min": [
        0.0
      ],
      "max": [
        198.0
      ],
      "type": "SCALAR",
      "name": "indices"
    }
  ],
  "nodes": [
    {
      "mesh": 0
    }
  ],
  "scenes": [
    {
      "name": "scene",
      "nodes": [
        0
      ]
    }
  ],
  "buffers": [
    {
      "byteLength": 8428,
      "uri": "data:application/octet-stream;base64,"
    }
  ],
  "bufferViews": [
    {
      "buffer": 0,
      "byteLength": 6368,
      "byteOffset": 0
    },
    {
      "buffer": 0,
      "byteLength": 2058,
      "byteOffset": 6368
    }
  ],
  "meshes": [
    {
      "primitives": [
        {
          "attributes": {
            "POSITION": 0,
            "NORMAL": 1,
            "TEXCOORD_0": 2
          },
          "indices": 3,
          "material": 0,
          "mode": 4
        }
      ]
    }
  ],
  "images": [
    {
      "uri": "data:image/vnd-ms.dds;base64,"
    }
  ],
  "samplers": [
    {
      "magFilter": 9729,
      "minFilter": 9729,
      "wrapS": 33071,
      "wrapT": 33071
    }
  ],
  "textures": [
    {
      "sampler": 0,
      "source": 0
    }
  ],
  "materials": [
    {
      "pbrMetallicRoughness": {
        "baseColorFactor": [
          1.0,
          1.0,
          1.0,
          1.0
        ],
        "baseColorTexture": {
          "index": 0
        }
      }
    }
  ]
}